<svg width="710" height="279" viewBox="0 0 710 279" fill="none" xmlns="http://www.w3.org/2000/svg">
<path d="M0.30127 18C0.30127 12.4772 4.77842 8 10.3013 8H50.3013C77.9155 8 100.301 30.3858 100.301 58C100.301 85.6142 77.9155 108 50.3013 108H0.30127V18Z" fill="#ED4B40"/>
<path d="M0 108H50C77.6142 108 100 130.386 100 158C100 185.614 77.6142 208 50 208H10C4.47716 208 0 203.523 0 198V108Z" fill="#00C9DB"/>
<path d="M125.6 198H159.6C170.333 198 178.933 194.6 185.4 187.8C191.867 181 195.1 172.067 195.1 161V85C195.1 73.8667 191.867 64.9333 185.4 58.2C178.933 51.4 170.333 48 159.6 48H125.6V198ZM140.6 183V63H159.6C165.8 63 170.767 65.0333 174.5 69.1C178.233 73.1 180.1 78.4 180.1 85V161C180.1 167.6 178.233 172.933 174.5 177C170.767 181 165.8 183 159.6 183H140.6ZM248.758 200.4C259.691 200.4 267.958 196.867 273.558 189.8V198H288.058V122.2C288.058 115.2 286.591 109.067 283.658 103.8C280.791 98.4667 276.758 94.3333 271.558 91.4C266.424 88.4667 260.458 87 253.658 87C243.458 87 235.224 90.2333 228.958 96.7C222.691 103.167 219.558 111.667 219.558 122.2V124.7H234.058V121.7C234.058 115.633 235.791 110.767 239.258 107.1C242.791 103.367 247.591 101.5 253.658 101.5C259.724 101.5 264.558 103.367 268.158 107.1C271.758 110.767 273.558 115.633 273.558 121.7V124.3C273.558 127.833 272.458 130.567 270.258 132.5C268.058 134.433 265.158 135.967 261.558 137.1C257.958 138.167 254.024 139.2 249.758 140.2C245.558 141.2 241.424 142.5 237.358 144.1C233.958 145.433 230.724 147.2 227.658 149.4C224.658 151.6 222.191 154.467 220.258 158C218.324 161.467 217.358 165.833 217.358 171.1C217.358 179.567 220.091 186.567 225.558 192.1C231.024 197.633 238.758 200.4 248.758 200.4ZM251.758 186.6C245.424 186.6 240.524 185.067 237.058 182C233.591 178.867 231.858 174.867 231.858 170C231.858 165.533 233.124 162.1 235.658 159.7C238.258 157.233 241.591 155.333 245.658 154C250.191 152.467 254.958 151.267 259.958 150.4C264.958 149.533 269.491 147.8 273.558 145.2V164.4C273.558 171.6 271.591 177.1 267.658 180.9C263.791 184.7 258.491 186.6 251.758 186.6ZM314.778 77.4H329.278V54H314.778V77.4ZM314.778 198H329.278V89.5H314.778V198ZM357.747 198H372.247V48H357.747V198ZM410.516 234H426.116L468.016 89.5H452.016L428.416 174.8L404.516 89.5H388.716L420.316 200.2L410.516 234ZM487.709 198H526.709C536.509 198 544.376 194.9 550.309 188.7C556.243 182.433 559.209 174.2 559.209 164V147.2C559.209 141.333 558.143 136.067 556.009 131.4C553.876 126.667 550.976 122.833 547.309 119.9C550.443 116.9 552.876 113.2 554.609 108.8C556.343 104.4 557.209 99.5333 557.209 94.2V82C557.209 71.8 554.243 63.6 548.309 57.4C542.376 51.1333 534.509 48 524.709 48H487.709V198ZM502.709 113.2V63H524.709C530.043 63 534.276 64.7333 537.409 68.2C540.609 71.6667 542.209 76.2667 542.209 82V94.2C542.209 99.8667 540.609 104.467 537.409 108C534.276 111.467 530.043 113.2 524.709 113.2H502.709ZM502.709 183V128.2H526.709C532.043 128.2 536.276 129.933 539.409 133.4C542.609 136.867 544.209 141.467 544.209 147.2V164C544.209 169.667 542.609 174.267 539.409 177.8C536.276 181.267 532.043 183 526.709 183H502.709ZM586.458 77.4H600.958V54H586.458V77.4ZM586.458 198H600.958V89.5H586.458V198ZM666.027 200.4C674.96 200.4 682.46 197.433 688.527 191.5C694.593 185.5 697.627 176.867 697.627 165.6V121.7C697.627 110.433 694.593 101.833 688.527 95.9C682.46 89.9667 674.96 87 666.027 87C661.16 87 656.86 87.8667 653.127 89.6C649.46 91.3333 646.393 93.7333 643.927 96.8V48H629.427V198H643.927V190.7C646.393 193.767 649.46 196.167 653.127 197.9C656.86 199.567 661.16 200.4 666.027 200.4ZM663.327 185.9C657.193 185.9 652.427 184.067 649.027 180.4C645.627 176.667 643.927 171.767 643.927 165.7V121.7C643.927 115.633 645.627 110.767 649.027 107.1C652.427 103.367 657.227 101.5 663.427 101.5C669.56 101.5 674.36 103.367 677.827 107.1C681.36 110.767 683.127 115.633 683.127 121.7V165.6C683.127 171.667 681.36 176.567 677.827 180.3C674.36 184.033 669.527 185.9 663.327 185.9Z" fill="#F0F0F0"/>
</svg>
